<!--?xml version="1.0" encoding="utf-8"?-->
<svg viewBox="0 0 300 261" xmlns="http://www.w3.org/2000/svg" width="300" height="261">
  <g transform="matrix(0.1, 0, 0, -0.1, 0, 261)" fill="#000000" stroke="none">
    <path d="M1300 2300 c0 -5 4 -10 9 -10 15 0 22 -33 9 -42 -9 -5 -5 -7 9 -5 34 5 37 13 12 41 -23 27 -39 33 -39 16z" style="paint-order: stroke; fill: rgb(255, 255, 255);" class="svg-elem-1"></path>
    <path d="M1172 2291 c-11 -7 -10 -9 3 -15 9 -3 13 -11 9 -17 -4 -7 -3 -9 4 -6 7 5 6 48 -2 47 0 0 -7 -4 -14 -9z" style="paint-order: stroke; fill: rgb(255, 255, 255);" class="svg-elem-2"></path>
    <path d="M1435 2277 c2 -29 24 -28 44 3 15 24 15 24 -2 11 -12 -10 -20 -11 -30 -2 -11 8 -13 6 -12 -12z" style="paint-order: stroke; fill: rgb(255, 255, 255);" class="svg-elem-3"></path>
    <path d="M1060 2276 c0 -9 -8 -12 -25 -8 -30 5 -33 -13 -4 -28 25 -14 48 2 46 31 -1 21 -17 27 -17 5z" style="paint-order: stroke; fill: rgb(255, 255, 255);" class="svg-elem-4"></path>
    <path d="M1240 2273 c-13 -15 -12 -16 4 -10 10 4 20 7 22 7 2 0 4 5 4 10 0 15 -13 12 -30 -7z" style="paint-order: stroke; fill: rgb(255, 255, 255);" class="svg-elem-5"></path>
    <path d="M1527 2260 c3 -11 10 -20 15 -20 5 0 6 5 3 10 -3 6 -1 10 4 10 6 0 11 5 11 10 0 6 -9 10 -19 10 -14 0 -18 -5 -14 -20z" style="paint-order: stroke; fill: rgb(255, 255, 255);" class="svg-elem-6"></path>
    <path d="M1640 2270 c0 -5 5 -10 10 -10 6 0 10 5 10 10 0 6 -4 10 -10 10 -5 0 -10 -4 -10 -10z" style="paint-order: stroke; fill: rgb(255, 255, 255);" class="svg-elem-7"></path>
    <path d="M1394 2251 c0 -11 4 -17 8 -15 4 3 8 12 8 20 0 8 -4 14 -8 14 -4 0 -8 -9 -8 -19z" style="paint-order: stroke; fill: rgb(255, 255, 255);" class="svg-elem-8"></path>
    <path d="M1105 2250 c-4 -6 5 -10 19 -10 14 0 26 5 26 10 0 6 -9 10 -19 10 -11 0 -23 -4 -26 -10z" style="paint-order: stroke; fill: rgb(255, 255, 255);" class="svg-elem-9"></path>
    <path d="M1593 2250 c-32 -13 -29 -22 5 -14 26 6 27 6 7 -10 -20 -17 -20 -17 3 -6 12 6 37 8 56 5 28 -6 34 -3 39 14 3 14 0 21 -10 21 -8 0 -12 -4 -9 -8 2 -4 -10 -8 -29 -8 -19 0 -31 4 -29 8 6 10 -5 9 -33 -2z" style="paint-order: stroke; fill: rgb(255, 255, 255);" class="svg-elem-10"></path>
    <path d="M1202 2239 c2 -7 20 -13 39 -14 19 0 40 -4 47 -8 6 -5 12 -4 12 2 0 14 -9 18 -59 26 -33 6 -42 4 -39 -6z" style="paint-order: stroke; fill: rgb(255, 255, 255);" class="svg-elem-11"></path>
    <path d="M1475 2240 c-3 -5 -2 -10 4 -10 5 0 13 5 16 10 3 6 2 10 -4 10 -5 0 -13 -4 -16 -10z" style="paint-order: stroke; fill: rgb(255, 255, 255);" class="svg-elem-12"></path>
    <path d="M1360 2230 c0 -5 5 -10 11 -10 8 0 7 -6 -2 -17 -13 -16 -12 -17 4 -4 15 12 17 11 17 -3 0 -16 46 -34 57 -22 4 3 -3 6 -15 6 -12 0 -22 5 -22 10 0 10 -36 50 -45 50 -3 0 -5 -4 -5 -10z" style="paint-order: stroke; fill: rgb(255, 255, 255);" class="svg-elem-13"></path>
    <path d="M1420 2220 c0 -6 7 -10 15 -10 8 0 15 2 15 4 0 2 -7 6 -15 10 -8 3 -15 1 -15 -4z" style="paint-order: stroke; fill: rgb(255, 255, 255);" class="svg-elem-14"></path>
    <path d="M1875 2221 c-3 -6 -11 -8 -17 -5 -6 4 -9 1 -6 -6 7 -21 25 -23 32 -4 8 20 1 30 -9 15z" style="paint-order: stroke; fill: rgb(255, 255, 255);" class="svg-elem-15"></path>
    <path d="M1155 2211 c-16 -14 -75 -22 -75 -10 0 6 -7 4 -15 -5 -17 -17 -20 -30 -5 -21 6 3 10 -3 10 -14 0 -24 -18 -28 -26 -6 -4 8 -15 15 -26 15 -10 0 -16 -4 -13 -10 3 -5 -2 -10 -12 -11 -16 0 -16 -1 2 -8 11 -5 39 -7 63 -6 l42 2 -22 -21 c-13 -13 -26 -21 -30 -19 -5 2 -8 -3 -8 -11 0 -18 -11 -20 -28 -6 -9 7 -9 7 -2 -2 15 -17 12 -31 -4 -25 -8 3 -17 -1 -20 -9 -3 -8 -10 -14 -16 -14 -6 0 -8 6 -4 13 3 6 -10 -5 -31 -25 -24 -26 -35 -45 -33 -60 3 -21 0 -23 -44 -20 -29 2 -48 -1 -48 -7 0 -6 10 -11 22 -11 12 0 29 -7 38 -15 15 -13 19 -12 39 16 12 17 20 37 17 46 -10 25 5 36 21 14 13 -19 12 -23 -12 -48 -26 -28 -58 -80 -53 -86 2 -2 -5 -11 -14 -21 -10 -10 -18 -23 -18 -31 0 -7 -3 -15 -8 -17 -8 -3 -43 -88 -36 -88 3 0 17 27 33 59 15 33 35 67 44 76 10 9 17 23 17 32 0 18 35 64 44 58 3 -3 4 -3 2 1 -2 3 24 33 58 66 33 34 52 56 41 51 -11 -6 -29 -21 -39 -32 -21 -23 -42 -29 -30 -8 6 9 4 9 -8 -1 -13 -10 -17 -10 -22 4 -9 23 -8 26 12 22 9 -1 40 11 67 26 105 60 117 66 125 61 4 -3 7 2 6 11 -1 8 -8 19 -15 24 -9 5 -10 10 -3 14 6 4 9 13 5 21 -3 8 -1 15 5 15 5 0 12 7 16 15 6 17 4 19 -9 6z m-29 -58 c1 -12 -3 -27 -8 -35 -8 -10 -9 -9 -5 4 3 9 -1 22 -9 28 -19 17 -18 32 4 28 9 -2 17 -13 18 -25z" style="paint-order: stroke; fill: rgb(255, 255, 255);" class="svg-elem-16"></path>
    <path d="M1233 2209 c-17 -17 -16 -26 2 -33 18 -6 45 2 45 15 0 4 -6 6 -14 3 -8 -3 -16 2 -18 11 -2 13 -5 14 -15 4z" style="paint-order: stroke; fill: rgb(255, 255, 255);" class="svg-elem-17"></path>
    <path d="M1305 2199 l-20 -21 30 8 c37 8 39 10 30 23 -9 15 -17 13 -40 -10z" style="paint-order: stroke; fill: rgb(255, 255, 255);" class="svg-elem-18"></path>
    <path d="M1710 2209 c0 -7 -9 -9 -22 -6 -22 6 -22 6 -4 -8 32 -24 60 -17 49 11 -6 17 -23 19 -23 3z" style="paint-order: stroke; fill: rgb(255, 255, 255);" class="svg-elem-19"></path>
    <path d="M1765 2210 c-3 -5 0 -10 8 -10 19 0 30 -27 14 -34 -7 -4 0 -4 15 -1 20 4 31 -1 42 -17 9 -12 19 -18 23 -14 5 5 2 11 -5 13 -6 3 -10 9 -6 14 3 5 1 9 -5 9 -6 0 -8 6 -6 13 6 15 -11 44 -21 34 -4 -3 -1 -13 6 -22 10 -12 10 -15 -5 -15 -9 0 -19 9 -22 20 -6 21 -28 27 -38 10z" style="paint-order: stroke; fill: rgb(255, 255, 255);" class="svg-elem-20"></path>
    <path d="M1460 2189 c0 -11 11 -20 33 -25 51 -12 87 -11 87 5 0 8 6 11 15 7 8 -3 15 -1 15 4 0 16 -52 11 -64 -6 -9 -11 -17 -13 -36 -5 -19 7 -21 10 -7 10 29 1 14 26 -16 27 -20 1 -27 -4 -27 -17z m35 1 c-3 -5 -11 -10 -16 -10 -6 0 -7 5 -4 10 3 6 11 10 16 10 6 0 7 -4 4 -10z" style="paint-order: stroke; fill: rgb(255, 255, 255);" class="svg-elem-21"></path>
    <path d="M988 2193 c7 -3 16 -2 19 1 4 3 -2 6 -13 5 -11 0 -14 -3 -6 -6z" style="paint-order: stroke; fill: rgb(255, 255, 255);" class="svg-elem-22"></path>
    <path d="M1200 2171 c6 -12 15 -21 20 -21 18 0 11 19 -11 30 -19 11 -20 10 -9 -9z" style="paint-order: stroke; fill: rgb(255, 255, 255);" class="svg-elem-23"></path>
    <path d="M1625 2180 c-4 -6 -3 -10 2 -9 21 4 32 -2 27 -15 -3 -9 3 -17 18 -21 13 -4 31 -14 40 -22 9 -8 22 -12 28 -8 6 4 19 0 28 -8 9 -8 28 -18 42 -22 14 -4 36 -16 50 -25 33 -23 108 -64 95 -52 -53 49 -107 94 -100 83 5 -9 4 -12 -6 -9 -8 3 -13 10 -12 16 2 6 -8 9 -23 6 -19 -4 -31 1 -41 16 -8 12 -21 19 -29 16 -8 -3 -13 0 -11 6 1 6 -8 12 -21 13 -12 1 -32 11 -43 23 -22 24 -34 27 -44 12z" style="paint-order: stroke; fill: rgb(255, 255, 255);" class="svg-elem-24"></path>
    <path d="M903 2149 c-2 -31 -2 -31 17 -14 16 15 17 19 5 31 -19 19 -20 18 -22 -17z" style="paint-order: stroke; fill: rgb(255, 255, 255);" class="svg-elem-25"></path>
    <path d="M1323 2172 c-40 -6 -25 -18 17 -14 22 2 40 7 40 11 0 7 -21 8 -57 3z" style="paint-order: stroke; fill: rgb(255, 255, 255);" class="svg-elem-26"></path>
    <path d="M1225 2143 c-20 -11 -30 -12 -33 -4 -2 6 -8 11 -14 11 -6 0 -6 -6 2 -15 10 -12 10 -15 0 -15 -8 0 -11 -3 -8 -6 3 -3 22 1 41 10 19 8 39 11 43 8 4 -4 4 -1 -1 7 -6 10 -2 11 15 6 15 -5 20 -4 16 4 -10 15 -25 13 -61 -6z" style="paint-order: stroke; fill: rgb(255, 255, 255);" class="svg-elem-27"></path>
    <path d="M840 2134 c0 -20 27 -47 40 -39 16 10 11 25 -6 18 -13 -5 -15 -2 -9 15 5 16 2 22 -9 22 -9 0 -16 -7 -16 -16z" style="paint-order: stroke; fill: rgb(255, 255, 255);" class="svg-elem-28"></path>
    <path d="M1893 2132 c18 -20 18 -20 -2 -15 -15 4 -21 1 -21 -11 0 -8 6 -13 13 -10 7 2 19 -7 27 -21 7 -14 17 -25 22 -25 11 0 10 18 -2 25 -6 4 -8 11 -4 16 4 6 11 6 19 -1 14 -12 28 0 17 15 -4 6 -25 18 -47 29 l-40 18 18 -20z" style="paint-order: stroke; fill: rgb(255, 255, 255);" class="svg-elem-29"></path>
    <path d="M1804 2131 c4 -5 0 -11 -6 -14 -8 -2 -9 -8 -4 -13 5 -5 11 -4 13 4 3 6 12 12 21 12 15 0 15 2 2 10 -19 12 -33 13 -26 1z" style="paint-order: stroke; fill: rgb(255, 255, 255);" class="svg-elem-30"></path>
    <path d="M933 2114 c-7 -7 -9 -15 -4 -19 5 -3 11 1 14 7 2 7 8 9 13 5 5 -5 -3 -18 -18 -31 -28 -22 -37 -46 -18 -46 6 0 10 7 10 15 0 8 9 19 20 25 11 6 20 17 20 25 0 8 5 15 10 15 6 0 10 4 10 9 0 13 -44 10 -57 -5z" style="paint-order: stroke; fill: rgb(255, 255, 255);" class="svg-elem-31"></path>
    <path d="M1324 2088 c3 -13 3 -17 0 -10 -3 6 -11 9 -16 6 -7 -4 -8 -2 -4 4 10 16 -26 16 -42 0 -6 -6 -19 -13 -27 -14 -56 -8 -243 -169 -231 -200 3 -8 -1 -14 -8 -14 -17 0 -43 -39 -51 -76 -5 -22 -1 -18 15 14 28 58 36 48 10 -12 -11 -26 -20 -53 -20 -59 0 -7 13 18 29 55 16 36 38 80 50 97 12 17 19 31 15 31 -4 0 17 24 47 54 38 37 73 60 116 77 34 13 59 27 57 31 -10 17 13 7 36 -14 29 -27 24 -26 42 -10 13 10 19 10 33 -4 14 -14 18 -15 25 -4 11 18 2 33 -16 26 -8 -3 -14 -1 -14 5 0 14 -26 39 -40 39 -7 0 -9 -9 -6 -22z" style="paint-order: stroke; fill: rgb(255, 255, 255);" class="svg-elem-32"></path>
    <path d="M1425 2080 c-7 -11 40 -21 61 -13 13 5 15 3 9 -8 -7 -11 -5 -11 10 1 11 9 16 10 11 3 -5 -9 0 -13 17 -13 31 0 136 -53 162 -83 11 -12 23 -22 27 -22 3 0 16 -12 28 -27 12 -16 29 -28 37 -28 9 0 13 -3 10 -7 -4 -3 2 -12 12 -19 22 -16 75 -103 68 -111 -3 -2 -38 25 -78 62 -40 37 -84 74 -98 83 -14 9 -39 27 -55 39 -36 30 -86 56 -86 46 0 -5 16 -17 35 -27 19 -11 35 -23 35 -28 0 -14 -40 -2 -53 16 -12 16 -14 16 -14 2 0 -9 4 -16 9 -16 4 0 8 -9 8 -20 0 -11 5 -20 11 -20 5 0 7 5 4 10 -3 6 1 10 9 10 20 0 57 -31 50 -42 -5 -8 11 -12 30 -9 5 1 6 -5 3 -14 -4 -9 -1 -15 8 -15 16 0 39 -36 31 -48 -3 -5 15 -26 40 -47 26 -21 54 -56 64 -80 10 -24 37 -73 60 -109 35 -55 44 -80 52 -144 10 -77 6 -160 -8 -196 -5 -13 -4 -17 3 -13 12 8 31 81 35 137 3 36 19 64 28 50 3 -5 14 -2 24 6 19 13 19 14 -6 14 -14 0 -31 7 -38 15 -8 10 -16 12 -19 6 -4 -5 -6 8 -6 30 0 35 1 38 12 23 7 -10 13 -24 13 -31 0 -7 8 -17 18 -22 24 -13 61 -10 56 4 -6 15 41 39 61 31 41 -15 60 -152 30 -210 -9 -16 -12 -32 -7 -35 5 -3 13 -17 17 -31 8 -25 8 -25 21 10 8 21 13 28 13 16 1 -11 3 -17 4 -15 4 5 -9 171 -16 209 -13 66 -67 190 -83 190 -3 0 -2 -5 2 -12 4 -6 3 -8 -4 -5 -5 4 -8 15 -5 26 3 10 -10 42 -32 75 -39 61 -55 75 -29 24 9 -17 17 -45 18 -62 1 -16 8 -32 14 -34 7 -2 10 -7 7 -12 -3 -5 6 -17 20 -28 14 -11 25 -23 25 -27 0 -3 7 -13 15 -22 18 -17 11 -35 -10 -26 -9 3 -22 -1 -31 -8 -13 -10 -17 -10 -26 2 -8 11 -9 11 -5 -3 6 -17 -21 -48 -41 -48 -6 0 -9 6 -6 14 3 7 -2 16 -10 19 -9 4 -16 11 -16 18 0 6 -10 19 -22 30 -17 14 -19 18 -7 19 8 0 21 -6 29 -12 8 -7 4 -1 -9 15 -26 29 -37 35 -25 15 4 -7 -2 -4 -14 6 -23 20 -31 43 -11 30 23 -14 -11 34 -46 65 -20 17 -30 31 -24 31 7 0 4 9 -7 22 -10 12 -13 18 -6 14 6 -4 12 -3 12 2 0 10 -116 122 -128 122 -8 1 -96 80 -88 80 12 0 125 -83 179 -131 31 -28 61 -48 66 -45 10 7 34 -18 25 -27 -3 -3 4 -11 16 -17 l21 -11 -22 43 c-27 54 -117 168 -132 168 -7 0 -23 14 -37 32 -39 49 -117 106 -163 120 -23 7 -45 16 -48 21 -8 11 -108 17 -114 7z m386 -337 c13 -16 12 -17 -3 -4 -10 7 -18 15 -18 17 0 8 8 3 21 -13z m267 -129 c-10 -10 -28 6 -28 24 0 15 1 15 17 -1 9 -9 14 -19 11 -23z" style="paint-order: stroke; fill: rgb(255, 255, 255);" class="svg-elem-33"></path>
    <path d="M1984 2076 c-3 -9 -13 -16 -22 -16 -12 0 -13 -3 -4 -12 7 -7 12 -19 12 -28 0 -8 15 -30 34 -48 29 -27 36 -30 46 -17 9 11 9 15 1 15 -16 0 -13 27 4 34 8 3 14 0 12 -7 -1 -7 6 -11 18 -9 29 5 32 12 12 23 -9 6 -17 17 -17 24 0 8 -4 15 -10 15 -5 0 -10 -5 -10 -11 0 -8 -5 -7 -15 1 -9 7 -18 10 -22 7 -3 -4 0 -13 7 -22 8 -10 9 -15 1 -15 -6 0 -11 -7 -11 -16 0 -14 -2 -14 -16 -3 -10 8 -12 15 -5 17 17 6 13 22 -5 22 -9 0 -14 7 -12 18 3 13 13 17 46 16 45 -2 56 10 20 22 -14 4 -24 2 -26 -5 -3 -9 -7 -9 -18 0 -11 9 -15 8 -20 -5z" style="paint-order: stroke; fill: rgb(255, 255, 255);" class="svg-elem-34"></path>
    <path d="M1662 2064 c10 -10 20 -16 22 -13 3 3 -5 11 -17 18 -21 13 -21 12 -5 -5z" style="paint-order: stroke; fill: rgb(255, 255, 255);" class="svg-elem-35"></path>
    <path d="M844 2055 c-10 -8 -14 -15 -8 -15 5 0 19 7 30 15 10 8 14 15 8 15 -5 0 -19 -7 -30 -15z" style="paint-order: stroke; fill: rgb(255, 255, 255);" class="svg-elem-36"></path>
    <path d="M1705 2042 c1 -9 7 -16 13 -15 5 1 18 -7 27 -17 19 -21 41 -27 29 -8 -5 7 -3 8 5 4 7 -5 10 -10 7 -13 -3 -3 12 -27 33 -52 43 -52 142 -194 161 -231 13 -24 12 -24 -5 -10 -16 12 -15 8 5 -25 28 -47 40 -63 40 -49 0 5 -7 18 -15 28 -12 15 -12 22 -3 27 9 6 9 12 -3 26 -8 10 -23 34 -33 53 -21 39 -100 153 -130 187 -10 12 -24 32 -30 45 -6 13 -21 23 -31 23 -12 1 -19 7 -17 15 2 8 0 12 -4 7 -4 -4 -17 0 -30 8 -20 13 -22 13 -19 -3z" style="paint-order: stroke; fill: rgb(255, 255, 255);" class="svg-elem-37"></path>
    <path d="M875 2020 c4 -6 11 -8 16 -5 14 9 11 15 -7 15 -8 0 -12 -5 -9 -10z" style="paint-order: stroke; fill: rgb(255, 255, 255);" class="svg-elem-38"></path>
    <path d="M1421 2014 c0 -11 3 -14 6 -6 3 7 2 16 -1 19 -3 4 -6 -2 -5 -13z" style="paint-order: stroke; fill: rgb(255, 255, 255);" class="svg-elem-39"></path>
    <path d="M1235 2010 c-3 -5 -15 -10 -26 -10 -31 0 -81 -29 -73 -43 4 -7 4 -9 -1 -5 -13 12 -70 -39 -96 -89 l-26 -48 78 77 c43 43 85 78 94 78 9 0 14 3 12 8 -3 4 6 8 20 9 29 1 50 18 35 27 -6 3 -13 2 -17 -4z" style="paint-order: stroke; fill: rgb(255, 255, 255);" class="svg-elem-40"></path>
    <path d="M1315 2010 c-19 -8 -19 -9 3 -9 12 -1 22 4 22 9 0 6 -1 10 -2 9 -2 0 -12 -4 -23 -9z" style="paint-order: stroke; fill: rgb(255, 255, 255);" class="svg-elem-41"></path>
    <path d="M1560 2013 c0 -1 8 -7 18 -12 13 -7 19 -6 19 2 0 7 -9 13 -19 13 -10 0 -18 -1 -18 -3z" style="paint-order: stroke; fill: rgb(255, 255, 255);" class="svg-elem-42"></path>
    <path d="M1440 2001 c0 -6 9 -11 21 -11 11 0 18 -4 15 -9 -4 -5 3 -7 14 -4 25 7 26 23 1 23 -11 0 -26 3 -35 6 -9 3 -16 1 -16 -5z" style="paint-order: stroke; fill: rgb(255, 255, 255);" class="svg-elem-43"></path>
    <path d="M1720 1996 c0 -2 8 -10 18 -17 15 -13 16 -12 3 4 -13 16 -21 21 -21 13z" style="paint-order: stroke; fill: rgb(255, 255, 255);" class="svg-elem-44"></path>
    <path d="M1920 1991 c0 -5 7 -15 17 -22 15 -13 15 -12 4 9 -12 23 -21 28 -21 13z" style="paint-order: stroke; fill: rgb(255, 255, 255);" class="svg-elem-45"></path>
    <path d="M770 1976 c9 -9 24 -13 38 -10 34 9 26 20 -15 22 -34 3 -36 1 -23 -12z" style="paint-order: stroke; fill: rgb(255, 255, 255);" class="svg-elem-46"></path>
    <path d="M1328 1983 c7 -3 16 -2 19 1 4 3 -2 6 -13 5 -11 0 -14 -3 -6 -6z" style="paint-order: stroke; fill: rgb(255, 255, 255);" class="svg-elem-47"></path>
    <path d="M1880 1986 c0 -2 8 -10 18 -17 15 -13 16 -12 3 4 -13 16 -21 21 -21 13z" style="paint-order: stroke; fill: rgb(255, 255, 255);" class="svg-elem-48"></path>
    <path d="M1350 1970 c-14 -4 -18 -9 -10 -10 11 -1 9 -4 -5 -10 -27 -12 -37 -12 -31 -1 3 5 -6 12 -20 15 -55 14 -191 -91 -240 -185 -7 -15 -10 -29 -7 -33 4 -3 1 -6 -5 -6 -7 0 -11 -3 -10 -7 3 -8 -17 -65 -32 -94 -4 -9 -5 -22 0 -29 6 -9 10 -6 15 11 5 13 8 26 7 29 0 3 6 12 14 21 8 9 14 20 13 25 -5 20 38 73 87 107 29 21 56 37 60 37 4 0 23 12 42 28 20 15 45 33 56 40 19 11 18 12 -9 6 -39 -9 -45 -12 -45 -30 0 -8 -10 -14 -24 -14 -13 0 -38 -13 -56 -30 -18 -16 -39 -30 -47 -30 -8 0 -11 -4 -8 -10 3 -5 1 -10 -4 -10 -18 0 -12 15 19 50 17 18 30 37 30 42 0 4 5 8 10 8 6 0 25 10 41 22 22 17 46 24 87 25 32 1 86 11 122 22 l65 20 -45 -1 c-25 0 -56 -4 -70 -8z" style="paint-order: stroke; fill: rgb(255, 255, 255);" class="svg-elem-49"></path>
    <path d="M1524 1953 c4 -9 1 -20 -6 -25 -9 -5 -6 -8 10 -8 12 0 22 4 22 9 0 18 -12 41 -22 41 -6 0 -7 -8 -4 -17z" style="paint-order: stroke; fill: rgb(255, 255, 255);" class="svg-elem-50"></path>
    <path d="M1988 1954 c6 -12 8 -25 4 -30 -4 -5 0 -3 8 4 12 10 12 15 -4 30 -18 16 -18 16 -8 -4z" style="paint-order: stroke; fill: rgb(255, 255, 255);" class="svg-elem-51"></path>
    <path d="M2107 1959 c7 -7 15 -10 18 -7 3 3 -2 9 -12 12 -14 6 -15 5 -6 -5z" style="paint-order: stroke; fill: rgb(255, 255, 255);" class="svg-elem-52"></path>
    <path d="M2050 1930 c0 -5 7 -10 16 -10 10 0 14 -6 10 -15 -3 -8 -1 -15 5 -15 6 0 8 -9 5 -20 -3 -11 -9 -29 -12 -41 -5 -18 -3 -20 16 -14 13 4 30 1 45 -9 28 -18 35 -20 35 -7 0 5 -9 11 -20 14 -11 3 -20 12 -20 21 0 18 -11 21 -27 5 -7 -7 -9 3 -7 37 2 31 -1 51 -9 56 -17 11 -37 10 -37 -2z" style="paint-order: stroke; fill: rgb(255, 255, 255);" class="svg-elem-53"></path>
    <path d="M765 1920 c3 -5 8 -10 11 -10 2 0 4 5 4 10 0 6 -5 10 -11 10 -5 0 -7 -4 -4 -10z" style="paint-order: stroke; fill: rgb(255, 255, 255);" class="svg-elem-54"></path>
    <path d="M1382 1923 c-6 -2 -10 -9 -7 -14 4 -5 0 -6 -7 -4 -7 3 -44 -15 -82 -40 -38 -25 -73 -45 -77 -45 -5 0 -9 -5 -9 -12 0 -6 -3 -9 -6 -5 -15 15 -78 -53 -142 -151 -38 -59 -79 -118 -91 -131 -11 -13 -21 -31 -21 -40 0 -8 22 10 49 40 27 30 86 84 131 120 45 35 91 72 103 82 l20 17 -21 0 c-12 0 -22 -4 -22 -10 0 -5 -6 -10 -12 -10 -7 0 -43 -30 -80 -67 -38 -37 -68 -63 -68 -58 0 6 31 47 70 91 92 108 199 185 287 207 25 7 48 18 50 24 3 9 -3 9 -23 -2 -29 -15 -49 -11 -24 5 16 10 4 12 -18 3z" style="paint-order: stroke; fill: rgb(255, 255, 255);" class="svg-elem-55"></path>
    <path d="M1525 1900 c-13 -5 -14 -9 -5 -9 8 0 24 4 35 9 13 5 14 9 5 9 -8 0 -24 -4 -35 -9z" style="paint-order: stroke; fill: rgb(255, 255, 255);" class="svg-elem-56"></path>
    <path d="M1980 1906 c0 -2 8 -10 18 -17 15 -13 16 -12 3 4 -13 16 -21 21 -21 13z" style="paint-order: stroke; fill: rgb(255, 255, 255);" class="svg-elem-57"></path>
    <path d="M2166 1893 c-5 -12 -9 -13 -21 -3 -9 7 -18 10 -21 7 -3 -3 4 -10 15 -17 16 -8 20 -17 15 -34 -5 -21 -1 -25 25 -31 17 -4 29 -11 25 -16 -6 -10 9 -12 19 -2 11 10 -13 33 -34 33 -24 0 -26 45 -3 58 14 8 14 10 1 15 -9 3 -18 -1 -21 -10z" style="paint-order: stroke; fill: rgb(255, 255, 255);" class="svg-elem-58"></path>
    <path d="M770 1878 c11 -10 24 -17 29 -14 7 5 20 -24 21 -46 0 -11 -34 -2 -38 10 -2 7 -9 9 -15 5 -6 -4 -8 0 -4 10 5 12 1 17 -13 17 -11 0 -20 4 -20 10 0 10 -56 8 -67 -3 -3 -4 -16 -4 -28 -1 -13 3 -25 1 -29 -4 -3 -5 8 -12 25 -16 24 -5 29 -9 21 -19 -8 -10 -5 -13 16 -12 20 0 26 -4 24 -17 -2 -10 2 -18 8 -18 5 0 10 5 10 10 0 7 6 7 20 0 12 -7 20 -7 20 -1 0 5 -8 12 -17 15 -10 3 -31 17 -48 31 l-30 24 31 1 c17 0 40 -9 52 -20 12 -11 26 -20 33 -20 6 0 9 -6 6 -13 -2 -7 6 -18 19 -24 17 -8 24 -8 24 0 0 6 7 18 16 28 15 17 15 19 0 34 -9 9 -16 20 -16 23 0 4 -16 12 -35 18 -36 11 -36 11 -15 -8z" style="paint-order: stroke; fill: rgb(255, 255, 255);" class="svg-elem-59"></path>
    <path d="M835 1880 c3 -5 14 -10 23 -10 15 0 15 2 2 10 -20 13 -33 13 -25 0z" style="paint-order: stroke; fill: rgb(255, 255, 255);" class="svg-elem-60"></path>
    <path d="M1456 1857 c-14 -10 -15 -14 -4 -14 7 0 19 6 26 14 7 7 9 13 4 13 -4 0 -16 -6 -26 -13z" style="paint-order: stroke; fill: rgb(255, 255, 255);" class="svg-elem-61"></path>
    <path d="M2020 1866 c0 -2 7 -17 16 -32 l16 -29 -7 28 c-3 18 -2 26 4 23 5 -4 12 -2 16 4 4 6 -5 10 -19 10 -14 0 -26 -2 -26 -4z" style="paint-order: stroke; fill: rgb(255, 255, 255);" class="svg-elem-62"></path>
    <path d="M1415 1850 c-3 -5 -1 -10 4 -10 6 0 11 5 11 10 0 6 -2 10 -4 10 -3 0 -8 -4 -11 -10z" style="paint-order: stroke; fill: rgb(255, 255, 255);" class="svg-elem-63"></path>
    <path d="M1665 1810 c3 -5 14 -10 23 -10 15 0 15 2 2 10 -20 13 -33 13 -25 0z" style="paint-order: stroke; fill: rgb(255, 255, 255);" class="svg-elem-64"></path>
    <path d="M2050 1794 c0 -14 27 -50 33 -44 3 3 -3 16 -13 30 -11 14 -20 20 -20 14z" style="paint-order: stroke; fill: rgb(255, 255, 255);" class="svg-elem-65"></path>
    <path d="M2080 1794 c1 -5 7 -20 15 -34 18 -32 18 -41 0 -34 -16 7 -19 -4 -6 -24 14 -22 32 11 25 46 -6 28 -35 67 -34 46z" style="paint-order: stroke; fill: rgb(255, 255, 255);" class="svg-elem-66"></path>
    <path d="M1271 1780 c-7 -4 -12 -12 -10 -18 3 -7 10 -6 22 3 20 14 9 29 -12 15z" style="paint-order: stroke; fill: rgb(255, 255, 255);" class="svg-elem-67"></path>
    <path d="M2137 1765 c-4 -8 -2 -17 3 -20 14 -9 12 -49 -2 -63 -15 -15 -6 -24 15 -16 9 3 13 12 10 21 -5 11 -3 14 6 9 8 -5 5 5 -5 25 -10 19 -17 40 -16 47 4 17 -5 15 -11 -3z" style="paint-order: stroke; fill: rgb(255, 255, 255);" class="svg-elem-68"></path>
    <path d="M710 1760 c0 -10 41 -21 52 -14 16 10 7 19 -22 20 -17 1 -30 -2 -30 -6z" style="paint-order: stroke; fill: rgb(255, 255, 255);" class="svg-elem-69"></path>
    <path d="M783 1735 c-8 -8 -9 -16 -3 -20 5 -3 14 4 20 15 12 23 1 26 -17 5z" style="paint-order: stroke; fill: rgb(255, 255, 255);" class="svg-elem-70"></path>
    <path d="M741 1701 c-7 -5 -23 -6 -35 -4 -20 4 -19 3 4 -16 30 -25 48 -27 29 -4 -12 15 -12 16 4 10 11 -4 17 -2 17 8 0 17 -1 18 -19 6z" style="paint-order: stroke; fill: rgb(255, 255, 255);" class="svg-elem-71"></path>
    <path d="M1875 1700 c12 -4 47 -36 79 -71 32 -35 56 -57 54 -49 -2 8 -17 29 -34 47 -18 18 -27 34 -21 36 11 3 -72 47 -89 46 -5 0 0 -4 11 -9z" style="paint-order: stroke; fill: rgb(255, 255, 255);" class="svg-elem-72"></path>
    <path d="M929 1683 c-13 -16 -12 -17 4 -4 9 7 17 15 17 17 0 8 -8 3 -21 -13z" style="paint-order: stroke; fill: rgb(255, 255, 255);" class="svg-elem-73"></path>
    <path d="M770 1669 c0 -5 5 -7 10 -4 6 3 10 8 10 11 0 2 -4 4 -10 4 -5 0 -10 -5 -10 -11z" style="paint-order: stroke; fill: rgb(255, 255, 255);" class="svg-elem-74"></path>
    <path d="M2171 1652 c-6 -11 -6 -33 -1 -55 4 -20 6 -37 3 -37 -3 0 0 -7 7 -15 7 -8 9 -15 6 -15 -4 0 -2 -9 4 -19 7 -14 6 -21 -3 -24 -7 -3 -5 -6 6 -6 20 -1 21 3 7 30 -9 16 -7 19 8 19 10 0 23 -5 30 -12 9 -9 12 -8 12 5 0 12 -8 17 -31 17 -16 0 -28 4 -24 9 3 5 1 13 -5 16 -7 4 -9 25 -5 56 7 51 2 61 -14 31z" style="paint-order: stroke; fill: rgb(255, 255, 255);" class="svg-elem-75"></path>
    <path d="M625 1635 c-16 -13 -24 -24 -17 -25 6 0 12 4 12 8 0 12 50 33 61 27 5 -4 9 -1 9 4 0 19 -34 12 -65 -14z" style="paint-order: stroke; fill: rgb(255, 255, 255);" class="svg-elem-76"></path>
    <path d="M867 1641 c-4 -17 -3 -21 5 -13 5 5 8 16 6 23 -3 8 -7 3 -11 -10z" style="paint-order: stroke; fill: rgb(255, 255, 255);" class="svg-elem-77"></path>
    <path d="M2117 1629 c19 -38 43 -66 43 -50 0 5 -7 16 -15 25 -8 8 -15 19 -15 24 0 5 -7 15 -15 22 -12 10 -11 5 2 -21z" style="paint-order: stroke; fill: rgb(255, 255, 255);" class="svg-elem-78"></path>
    <path d="M750 1640 c0 -5 5 -10 10 -10 6 0 10 5 10 10 0 6 -4 10 -10 10 -5 0 -10 -4 -10 -10z" style="paint-order: stroke; fill: rgb(255, 255, 255);" class="svg-elem-79"></path>
    <path d="M706 1597 c-10 -25 -12 -43 -6 -45 5 -2 1 -13 -10 -24 -11 -12 -25 -18 -35 -14 -10 3 -14 2 -10 -4 4 -6 21 -8 41 -4 24 4 34 3 34 -7 0 -7 3 -9 6 -6 4 4 2 12 -3 19 -20 24 -1 93 23 84 21 -8 17 22 -5 33 -16 9 -21 4 -35 -32z" style="paint-order: stroke; fill: rgb(255, 255, 255);" class="svg-elem-80"></path>
    <path d="M686 1614 c-5 -14 -4 -15 9 -4 17 14 19 20 6 20 -5 0 -12 -7 -15 -16z" style="paint-order: stroke; fill: rgb(255, 255, 255);" class="svg-elem-81"></path>
    <path d="M635 1611 c-3 -6 0 -11 9 -11 8 0 17 -6 20 -12 3 -7 5 -4 3 6 -2 22 -22 32 -32 17z" style="paint-order: stroke; fill: rgb(255, 255, 255);" class="svg-elem-82"></path>
    <path d="M797 1613 c-4 -3 -7 -11 -7 -17 0 -6 5 -5 12 2 6 6 9 14 7 17 -3 3 -9 2 -12 -2z" style="paint-order: stroke; fill: rgb(255, 255, 255);" class="svg-elem-83"></path>
    <path d="M900 1590 c0 -5 5 -10 10 -10 6 0 10 5 10 10 0 6 -4 10 -10 10 -5 0 -10 -4 -10 -10z" style="paint-order: stroke; fill: rgb(255, 255, 255);" class="svg-elem-84"></path>
    <path d="M842 1570 c0 -14 2 -19 5 -12 2 6 2 18 0 25 -3 6 -5 1 -5 -13z" style="paint-order: stroke; fill: rgb(255, 255, 255);" class="svg-elem-85"></path>
    <path d="M981 1574 c0 -11 3 -14 6 -6 3 7 2 16 -1 19 -3 4 -6 -2 -5 -13z" style="paint-order: stroke; fill: rgb(255, 255, 255);" class="svg-elem-86"></path>
    <path d="M1540 1582 c-6 -2 -7 -9 -4 -14 5 -7 2 -8 -6 -3 -29 18 -81 9 -111 -20 l-30 -28 6 29 c5 27 5 27 -5 6 -7 -17 -6 -30 2 -45 l12 -22 6 25 c4 16 13 25 27 26 19 1 20 -2 11 -22 -6 -13 -16 -24 -21 -24 -6 0 -8 -2 -6 -5 3 -2 34 5 70 15 35 11 83 21 106 21 27 1 40 5 36 12 -4 7 0 8 12 4 11 -5 22 -1 31 10 10 14 12 14 11 3 -2 -8 -6 -21 -10 -27 -6 -10 0 -11 25 -7 18 3 39 8 46 10 7 2 10 -1 7 -6 -3 -6 1 -10 9 -10 27 0 6 30 -38 53 -30 16 -58 22 -108 22 -37 0 -72 -2 -78 -3z m-80 -22 c0 -5 -5 -10 -11 -10 -5 0 -7 5 -4 10 3 6 8 10 11 10 2 0 4 -4 4 -10z m70 -20 c0 -5 -7 -10 -16 -10 -8 0 -12 5 -9 10 3 6 10 10 16 10 5 0 9 -4 9 -10z m-40 -22 c0 -6 -3 -8 -7 -5 -3 4 -13 1 -22 -6 -14 -11 -14 -10 -2 6 15 20 31 22 31 5z" style="paint-order: stroke; fill: rgb(255, 255, 255);" class="svg-elem-87"></path>
    <path d="M768 1508 c-9 -33 -13 -57 -9 -52 10 12 35 103 29 109 -2 2 -11 -23 -20 -57z" style="paint-order: stroke; fill: rgb(255, 255, 255);" class="svg-elem-88"></path>
    <path d="M2010 1550 c0 -5 5 -10 11 -10 5 0 7 5 4 10 -3 6 -8 10 -11 10 -2 0 -4 -4 -4 -10z" style="paint-order: stroke; fill: rgb(255, 255, 255);" class="svg-elem-89"></path>
    <path d="M792 1482 c-6 -26 -14 -55 -17 -64 -4 -11 -3 -18 4 -18 6 0 10 3 9 8 -1 4 4 31 11 60 7 29 11 55 9 57 -3 3 -10 -16 -16 -43z" style="paint-order: stroke; fill: rgb(255, 255, 255);" class="svg-elem-90"></path>
    <path d="M1049 1513 c-6 -7 -17 -13 -25 -13 -14 0 -39 -38 -30 -47 2 -3 20 0 39 6 35 12 168 11 161 0 -2 -4 5 -9 16 -12 24 -6 26 6 5 27 -9 8 -14 17 -13 20 2 2 0 8 -4 12 -5 4 -8 2 -8 -5 0 -7 -5 -9 -11 -6 -6 5 -4 12 8 20 16 12 8 14 -55 13 -47 -1 -76 -6 -83 -15z m101 -12 c0 -4 -11 -6 -25 -3 -14 2 -25 6 -25 8 0 2 11 4 25 4 14 0 25 -4 25 -9z" style="paint-order: stroke; fill: rgb(255, 255, 255);" class="svg-elem-91"></path>
    <path d="M1226 1487 c3 -10 9 -15 12 -12 3 3 0 11 -7 18 -10 9 -11 8 -5 -6z" style="paint-order: stroke; fill: rgb(255, 255, 255);" class="svg-elem-92"></path>
    <path d="M1746 1491 c-3 -5 1 -12 10 -15 8 -3 13 -2 9 3 -3 5 1 12 7 14 8 4 7 6 -4 6 -9 1 -19 -3 -22 -8z" style="paint-order: stroke; fill: rgb(255, 255, 255);" class="svg-elem-93"></path>
    <path d="M954 1443 c-8 -18 -11 -76 -9 -155 3 -152 10 -209 37 -308 11 -41 23 -86 26 -100 3 -14 9 -28 14 -31 5 -3 10 -15 11 -27 0 -11 5 -18 9 -16 4 3 8 -1 8 -9 0 -8 9 -22 20 -32 11 -10 18 -20 16 -22 -2 -3 10 -18 27 -33 24 -22 29 -32 21 -40 -9 -9 -19 -7 -40 6 l-29 18 20 -23 c14 -16 27 -21 47 -19 21 3 28 0 28 -11 0 -22 -17 -47 -26 -39 -9 10 -47 -40 -41 -55 3 -6 9 0 16 16 7 18 18 27 33 27 13 0 19 -4 13 -8 -12 -9 -19 -52 -8 -52 4 0 8 -45 9 -99 0 -69 6 -109 17 -133 9 -19 14 -44 10 -56 -3 -12 -1 -22 5 -22 14 0 31 -80 35 -169 1 -25 7 -46 14 -48 17 -6 22 21 12 63 -6 22 -10 46 -10 54 0 8 -14 72 -30 142 -24 102 -31 157 -34 274 l-4 146 -44 47 c-101 108 -145 269 -156 569 -5 143 -8 168 -17 145z" style="paint-order: stroke; fill: rgb(255, 255, 255);" class="svg-elem-94"></path>
    <path d="M1290 1452 c-13 -14 -12 -15 2 -9 9 3 18 1 21 -6 2 -6 6 -4 10 5 8 22 -15 29 -33 10z" style="paint-order: stroke; fill: rgb(255, 255, 255);" class="svg-elem-95"></path>
    <path d="M1355 1460 c-3 -6 5 -14 19 -20 18 -6 26 -18 28 -41 3 -36 28 -53 28 -19 0 41 -60 105 -75 80z" style="paint-order: stroke; fill: rgb(255, 255, 255);" class="svg-elem-96"></path>
    <path d="M1631 1460 c43 -7 89 -25 89 -35 0 -2 -19 2 -42 11 -22 8 -70 15 -105 17 -52 2 -66 -1 -74 -15 -6 -10 -19 -18 -29 -18 -19 0 -36 -17 -27 -27 3 -3 26 9 51 26 45 31 77 44 40 16 -10 -8 -14 -15 -8 -15 7 0 14 -9 17 -20 3 -13 14 -20 30 -20 30 0 58 25 51 45 -5 11 1 12 31 2 l36 -11 -35 -18 c-48 -25 -46 -32 4 -12 29 12 55 15 91 10 66 -9 57 6 -25 45 -39 18 -76 29 -101 28 l-40 -1 46 -8z m-31 -35 c-7 -9 -15 -13 -18 -10 -3 3 -11 0 -19 -6 -9 -8 -13 -8 -13 -1 0 13 29 31 49 32 11 0 11 -3 1 -15z" style="paint-order: stroke; fill: rgb(255, 255, 255);" class="svg-elem-97"></path>
    <path d="M627 1440 c4 -16 0 -20 -20 -20 -14 0 -31 8 -36 18 -8 13 -10 14 -11 2 0 -29 19 -45 54 -45 19 0 32 3 29 8 -8 13 16 8 29 -7 11 -11 15 -11 25 3 10 14 11 12 6 -9 -8 -34 6 -20 16 16 6 20 4 33 -4 41 -15 14 -26 7 -19 -12 3 -7 1 -16 -5 -20 -6 -3 -11 1 -11 10 0 11 -5 15 -15 11 -9 -3 -18 1 -21 9 -9 22 -23 18 -17 -5z" style="paint-order: stroke; fill: rgb(255, 255, 255);" class="svg-elem-98"></path>
    <path d="M1270 1421 c0 -8 -6 -11 -16 -7 -14 5 -15 4 -4 -9 16 -20 1 -20 -64 0 -27 8 -61 15 -75 14 -14 0 2 -7 35 -14 57 -12 124 -39 124 -50 0 -5 -42 10 -71 26 -11 6 -52 12 -91 14 l-70 3 -14 -34 c-23 -55 -16 -58 36 -14 37 32 73 43 50 15 -7 -8 -17 -12 -22 -8 -6 3 -9 0 -6 -8 3 -8 18 -14 34 -14 22 0 30 5 32 23 4 26 0 25 42 10 30 -10 32 -12 15 -24 -15 -11 -13 -12 20 -7 30 5 37 3 33 -8 -12 -36 -146 -66 -206 -45 -22 7 -22 6 -10 -13 18 -29 112 -29 169 0 23 11 43 19 45 17 2 -2 -3 -16 -11 -31 -8 -15 -12 -27 -9 -27 11 0 -53 -89 -90 -125 -41 -39 -42 -42 -43 -105 l-1 -65 12 47 c6 28 24 60 43 80 17 18 48 67 68 108 42 86 75 234 56 253 -8 8 -11 8 -11 -2z m-210 -41 c0 -5 -5 -10 -11 -10 -5 0 -7 5 -4 10 3 6 8 10 11 10 2 0 4 -4 4 -10z" style="paint-order: stroke; fill: rgb(255, 255, 255);" class="svg-elem-99"></path>
    <path d="M2090 1415 c-7 -8 -8 -15 -3 -15 10 0 37 -78 46 -130 3 -14 5 3 4 38 0 34 -3 62 -6 62 -4 0 -7 12 -6 27 0 31 -17 40 -35 18z" style="paint-order: stroke; fill: rgb(255, 255, 255);" class="svg-elem-100"></path>
    <path d="M1495 1400 c-20 -22 -15 -36 10 -27 8 4 15 16 15 27 0 25 -2 25 -25 0z" style="paint-order: stroke; fill: rgb(255, 255, 255);" class="svg-elem-101"></path>
    <path d="M2052 1378 c-17 -17 -15 -39 3 -31 9 3 13 8 11 11 -3 3 2 11 12 18 14 11 15 13 2 14 -9 0 -21 -5 -28 -12z" style="paint-order: stroke; fill: rgb(255, 255, 255);" class="svg-elem-102"></path>
    <path d="M655 1330 c18 -20 21 -19 55 8 3 3 -5 1 -17 -2 -14 -5 -23 -3 -23 3 0 6 -7 11 -17 11 -14 0 -14 -2 2 -20z" style="paint-order: stroke; fill: rgb(255, 255, 255);" class="svg-elem-103"></path>
    <path d="M1440 1340 c0 -8 61 -30 83 -30 9 0 17 -4 17 -10 0 -5 10 -10 23 -10 18 0 19 2 7 10 -11 7 -5 10 23 10 40 0 147 27 147 37 0 3 -30 2 -67 -2 -100 -12 -177 -13 -188 -5 -12 9 -45 9 -45 0z" style="paint-order: stroke; fill: rgb(255, 255, 255);" class="svg-elem-104"></path>
    <path d="M2000 1343 c0 -6 5 -15 11 -18 6 -4 8 -13 5 -21 -10 -25 5 -76 20 -70 9 3 14 -2 14 -14 0 -33 24 -22 43 19 9 20 17 40 17 43 0 3 -19 13 -42 23 -23 9 -48 24 -55 33 -7 10 -13 12 -13 5z m70 -79 c0 -8 -4 -14 -9 -14 -11 0 -22 26 -14 34 9 9 23 -3 23 -20z" style="paint-order: stroke; fill: rgb(255, 255, 255);" class="svg-elem-105"></path>
    <path d="M732 1295 c1 -39 9 -39 13 0 2 14 -1 27 -6 30 -4 3 -8 -10 -7 -30z" style="paint-order: stroke; fill: rgb(255, 255, 255);" class="svg-elem-106"></path>
    <path d="M1635 1290 c-3 -5 1 -10 10 -10 9 0 13 5 10 10 -3 6 -8 10 -10 10 -2 0 -7 -4 -10 -10z" style="paint-order: stroke; fill: rgb(255, 255, 255);" class="svg-elem-107"></path>
    <path d="M701 1274 c0 -11 3 -14 6 -6 3 7 2 16 -1 19 -3 4 -6 -2 -5 -13z" style="paint-order: stroke; fill: rgb(255, 255, 255);" class="svg-elem-108"></path>
    <path d="M646 1266 c3 -8 12 -12 20 -9 21 8 17 23 -6 23 -13 0 -18 -5 -14 -14z" style="paint-order: stroke; fill: rgb(255, 255, 255);" class="svg-elem-109"></path>
    <path d="M711 1232 c4 -27 -3 -44 -16 -38 -8 3 -15 1 -15 -4 0 -11 59 -10 66 2 3 5 2 8 -3 7 -19 -3 -25 2 -14 15 9 10 8 15 -4 19 -8 4 -14 3 -14 -1z" style="paint-order: stroke; fill: rgb(255, 255, 255);" class="svg-elem-110"></path>
    <path d="M1475 1203 c52 -45 37 -93 -28 -93 -23 0 -52 -3 -64 -6 -40 -11 -25 -24 27 -24 58 0 97 21 112 59 l10 26 15 -22 c9 -13 22 -23 29 -23 24 0 79 -42 108 -82 26 -36 28 -46 23 -94 -3 -29 -2 -56 2 -59 5 -2 8 3 8 13 0 39 3 53 12 48 5 -3 11 1 15 9 3 9 0 15 -9 15 -8 0 -15 5 -15 11 0 5 6 7 13 3 10 -6 10 -4 0 7 -14 14 -18 33 -5 25 4 -2 9 4 9 15 1 12 -5 19 -16 19 -19 0 -81 59 -81 78 0 12 -30 31 -60 37 -11 2 -32 13 -47 23 -15 11 -39 23 -53 27 -25 6 -25 6 -5 -12z" style="paint-order: stroke; fill: rgb(255, 255, 255);" class="svg-elem-111"></path>
    <path d="M2000 1199 c-7 -11 -9 -24 -5 -27 7 -7 35 25 35 40 0 16 -19 8 -30 -13z" style="paint-order: stroke; fill: rgb(255, 255, 255);" class="svg-elem-112"></path>
    <path d="M2095 1200 c-9 -10 -22 -18 -28 -17 -6 1 -26 -23 -44 -53 -36 -59 -53 -73 -53 -44 0 16 -2 16 -14 4 -15 -16 -46 -161 -52 -245 -2 -27 -6 -62 -8 -76 -3 -14 0 -43 5 -65 6 -21 11 -44 11 -51 1 -6 7 -9 14 -6 14 5 15 3 35 -113 13 -78 12 -80 -70 -231 -16 -29 -26 -54 -23 -57 3 -3 0 -11 -5 -18 -6 -7 -14 -24 -18 -38 -4 -14 -15 -34 -24 -44 -11 -14 -12 -17 -2 -11 11 6 13 4 8 -9 -4 -10 -7 -20 -7 -22 0 -3 -5 -2 -11 2 -17 10 -105 -37 -125 -67 -10 -15 -23 -25 -30 -22 -7 2 -15 0 -19 -6 -4 -7 4 -11 19 -11 15 0 40 15 66 41 23 23 44 38 47 35 3 -3 11 2 18 11 14 18 41 8 28 -11 -4 -7 2 -1 13 12 18 20 25 22 43 13 11 -7 21 -15 21 -19 0 -15 70 -82 85 -82 11 0 5 11 -17 36 -18 19 -46 50 -63 68 -16 18 -36 35 -43 37 -10 3 -8 14 9 47 13 23 27 42 32 42 4 0 5 9 2 20 -5 15 -2 20 11 20 10 0 15 3 11 6 -3 3 12 40 34 83 22 42 41 94 43 116 2 22 5 40 6 40 1 0 3 10 4 23 2 14 -2 21 -9 18 -6 -2 -12 2 -12 10 0 7 4 11 9 8 4 -3 8 4 8 15 0 14 -5 19 -15 15 -10 -4 -15 0 -15 10 0 9 -11 34 -25 55 -23 33 -26 48 -24 115 1 42 5 76 8 76 10 0 32 111 24 123 -4 6 -1 7 6 2 9 -5 12 -1 11 11 -4 35 0 42 25 48 16 4 27 16 31 34 4 15 9 32 13 37 3 6 6 17 6 25 0 8 13 18 30 21 17 4 26 7 21 8 -5 0 -1 10 9 21 10 11 16 22 13 25 -3 3 -13 -4 -23 -15z" style="paint-order: stroke; fill: rgb(255, 255, 255);" class="svg-elem-113"></path>
    <path d="M648 1193 c7 -3 16 -2 19 1 4 3 -2 6 -13 5 -11 0 -14 -3 -6 -6z" style="paint-order: stroke; fill: rgb(255, 255, 255);" class="svg-elem-114"></path>
    <path d="M750 1170 c-8 -5 -11 -12 -7 -16 3 -4 13 -2 20 4 8 7 18 8 22 4 5 -4 5 -1 1 6 -9 14 -16 15 -36 2z" style="paint-order: stroke; fill: rgb(255, 255, 255);" class="svg-elem-115"></path>
    <path d="M1925 1170 c-3 -5 -2 -10 2 -10 5 0 7 -17 5 -37 -6 -51 4 -39 12 15 6 39 -4 56 -19 32z" style="paint-order: stroke; fill: rgb(255, 255, 255);" class="svg-elem-116"></path>
    <path d="M1965 1166 c-5 -11 -3 -21 6 -26 19 -12 21 -7 10 21 -8 22 -10 22 -16 5z" style="paint-order: stroke; fill: rgb(255, 255, 255);" class="svg-elem-117"></path>
    <path d="M2135 1153 c4 -16 8 -38 10 -51 4 -41 12 -33 10 10 -3 63 -4 68 -16 68 -7 0 -9 -10 -4 -27z" style="paint-order: stroke; fill: rgb(255, 255, 255);" class="svg-elem-118"></path>
    <path d="M810 1150 c0 -5 5 -10 11 -10 5 0 7 5 4 10 -3 6 -8 10 -11 10 -2 0 -4 -4 -4 -10z" style="paint-order: stroke; fill: rgb(255, 255, 255);" class="svg-elem-119"></path>
    <path d="M700 1135 c0 -8 -4 -15 -10 -15 -5 0 -10 -4 -10 -10 0 -5 7 -10 15 -10 8 0 15 6 15 14 0 8 5 16 12 18 7 3 6 7 -5 11 -11 4 -17 1 -17 -8z" style="paint-order: stroke; fill: rgb(255, 255, 255);" class="svg-elem-120"></path>
    <path d="M2080 1140 c0 -6 -9 -20 -19 -32 -11 -11 -17 -27 -13 -36 4 -13 7 -12 15 6 6 12 13 22 16 22 4 0 8 11 9 25 1 14 0 25 -3 25 -3 0 -5 -5 -5 -10z" style="paint-order: stroke; fill: rgb(255, 255, 255);" class="svg-elem-121"></path>
    <path d="M2103 1132 c1 -14 5 -18 11 -12 7 7 6 14 -1 21 -9 9 -12 7 -10 -9z" style="paint-order: stroke; fill: rgb(255, 255, 255);" class="svg-elem-122"></path>
    <path d="M827 1119 c7 -7 15 -10 18 -7 3 3 -2 9 -12 12 -14 6 -15 5 -6 -5z" style="paint-order: stroke; fill: rgb(255, 255, 255);" class="svg-elem-123"></path>
    <path d="M1217 1110 c-4 -15 2 -24 24 -36 27 -14 33 -13 62 2 18 9 42 22 54 28 34 17 28 24 -17 22 -25 -1 -45 -9 -53 -20 -11 -15 -18 -17 -33 -8 -19 11 -18 11 1 12 20 1 20 1 0 10 -29 13 -32 12 -38 -10z" style="paint-order: stroke; fill: rgb(255, 255, 255);" class="svg-elem-124"></path>
    <path d="M1398 1123 c7 -3 16 -2 19 1 4 3 -2 6 -13 5 -11 0 -14 -3 -6 -6z" style="paint-order: stroke; fill: rgb(255, 255, 255);" class="svg-elem-125"></path>
    <path d="M865 1100 c-3 -5 -1 -10 4 -10 6 0 11 5 11 10 0 6 -2 10 -4 10 -3 0 -8 -4 -11 -10z" style="paint-order: stroke; fill: rgb(255, 255, 255);" class="svg-elem-126"></path>
    <path d="M725 1090 c-3 -5 -2 -10 4 -10 5 0 13 5 16 10 3 6 2 10 -4 10 -5 0 -13 -4 -16 -10z" style="paint-order: stroke; fill: rgb(255, 255, 255);" class="svg-elem-127"></path>
    <path d="M2093 1075 c-3 -9 -3 -19 1 -22 3 -4 6 1 6 11 0 9 5 14 10 11 6 -3 10 -1 10 4 0 17 -20 13 -27 -4z" style="paint-order: stroke; fill: rgb(255, 255, 255);" class="svg-elem-128"></path>
    <path d="M791 1068 c-1 -11 -9 -18 -23 -19 -22 0 -22 -1 -3 -9 25 -10 38 2 32 26 -4 17 -5 17 -6 2z" style="paint-order: stroke; fill: rgb(255, 255, 255);" class="svg-elem-129"></path>
    <path d="M826 1067 c3 -10 9 -15 12 -12 3 3 0 11 -7 18 -10 9 -11 8 -5 -6z" style="paint-order: stroke; fill: rgb(255, 255, 255);" class="svg-elem-130"></path>
    <path d="M683 1054 c-8 -21 2 -27 31 -18 l25 9 -25 12 c-21 10 -26 9 -31 -3z" style="paint-order: stroke; fill: rgb(255, 255, 255);" class="svg-elem-131"></path>
    <path d="M1328 1063 c7 -3 16 -2 19 1 4 3 -2 6 -13 5 -11 0 -14 -3 -6 -6z" style="paint-order: stroke; fill: rgb(255, 255, 255);" class="svg-elem-132"></path>
    <path d="M2133 1053 c-14 -5 -18 -33 -5 -33 5 0 16 8 25 18 17 19 9 24 -20 15z" style="paint-order: stroke; fill: rgb(255, 255, 255);" class="svg-elem-133"></path>
    <path d="M1326 1037 c-16 -12 -16 -14 -2 -14 9 0 16 4 16 9 0 5 5 6 10 3 6 -3 10 -1 10 4 0 15 -12 14 -34 -2z" style="paint-order: stroke; fill: rgb(255, 255, 255);" class="svg-elem-134"></path>
    <path d="M813 1026 c-13 -6 -23 -14 -23 -19 0 -4 -5 -5 -12 -1 -7 4 -8 3 -4 -5 4 -6 12 -9 17 -5 5 3 17 -4 27 -16 11 -14 23 -19 35 -15 9 4 14 11 11 16 -3 5 -9 7 -13 5 -4 -3 -13 -1 -21 4 -11 7 -12 12 -4 20 9 9 14 9 18 1 9 -14 26 -14 26 -1 0 17 -34 27 -57 16z" style="paint-order: stroke; fill: rgb(255, 255, 255);" class="svg-elem-135"></path>
    <path d="M2090 1015 c0 -8 4 -15 10 -15 5 0 7 7 4 15 -4 8 -8 15 -10 15 -2 0 -4 -7 -4 -15z" style="paint-order: stroke; fill: rgb(255, 255, 255);" class="svg-elem-136"></path>
    <path d="M700 1000 c0 -5 5 -10 11 -10 5 0 7 5 4 10 -3 6 -8 10 -11 10 -2 0 -4 -4 -4 -10z" style="paint-order: stroke; fill: rgb(255, 255, 255);" class="svg-elem-137"></path>
    <path d="M884 991 c7 -11 46 -35 46 -28 0 3 -12 12 -26 22 -15 9 -23 12 -20 6z" style="paint-order: stroke; fill: rgb(255, 255, 255);" class="svg-elem-138"></path>
    <path d="M1622 980 c-24 -15 -52 -20 -110 -21 -82 -1 -157 -15 -97 -19 51 -3 -2 -19 -60 -18 l-50 1 40 7 40 7 -40 3 c-54 3 -75 1 -108 -12 -20 -8 -35 -8 -51 0 -20 9 -27 7 -41 -8 -15 -17 -11 -18 132 -15 81 1 160 7 175 13 15 6 55 13 88 16 33 2 70 10 83 19 13 8 31 16 41 18 16 3 17 6 5 16 -12 10 -22 8 -47 -7z" style="paint-order: stroke; fill: rgb(255, 255, 255);" class="svg-elem-139"></path>
    <path d="M2153 993 c3 -5 -2 -15 -11 -23 -14 -13 -15 -12 -9 3 3 9 2 17 -4 17 -14 0 -7 -32 7 -37 6 -2 19 8 28 22 15 22 15 25 1 25 -9 0 -14 -3 -12 -7z" style="paint-order: stroke; fill: rgb(255, 255, 255);" class="svg-elem-140"></path>
    <path d="M707 963 c-4 -3 -7 -13 -7 -22 1 -13 3 -13 11 2 11 19 8 33 -4 20z" style="paint-order: stroke; fill: rgb(255, 255, 255);" class="svg-elem-141"></path>
    <path d="M780 963 c0 -11 12 -26 32 -42 16 -12 17 -11 7 18 -9 27 -39 45 -39 24z" style="paint-order: stroke; fill: rgb(255, 255, 255);" class="svg-elem-142"></path>
    <path d="M885 940 c3 -5 8 -10 11 -10 2 0 4 5 4 10 0 6 -5 10 -11 10 -5 0 -7 -4 -4 -10z" style="paint-order: stroke; fill: rgb(255, 255, 255);" class="svg-elem-143"></path>
    <path d="M724 916 c-10 -8 -16 -17 -13 -20 3 -3 14 3 24 14 21 23 17 26 -11 6z" style="paint-order: stroke; fill: rgb(255, 255, 255);" class="svg-elem-144"></path>
    <path d="M1450 883 l-35 -14 35 6 c19 3 39 10 44 15 13 13 0 11 -44 -7z" style="paint-order: stroke; fill: rgb(255, 255, 255);" class="svg-elem-145"></path>
    <path d="M2132 878 c0 -7 -3 -24 -7 -38 -5 -18 -4 -21 3 -10 16 25 24 60 14 60 -5 0 -9 -6 -10 -12z" style="paint-order: stroke; fill: rgb(255, 255, 255);" class="svg-elem-146"></path>
    <path d="M904 865 c11 -8 24 -15 30 -15 5 0 1 7 -10 15 -10 8 -23 14 -29 14 -5 0 -1 -6 9 -14z" style="paint-order: stroke; fill: rgb(255, 255, 255);" class="svg-elem-147"></path>
    <path d="M1283 868 c15 -9 133 -11 124 -1 -4 3 -36 7 -71 7 -36 1 -59 -2 -53 -6z" style="paint-order: stroke; fill: rgb(255, 255, 255);" class="svg-elem-148"></path>
    <path d="M835 861 c-3 -5 -1 -12 5 -16 5 -3 10 1 10 9 0 18 -6 21 -15 7z" style="paint-order: stroke; fill: rgb(255, 255, 255);" class="svg-elem-149"></path>
    <path d="M1700 860 c0 -5 5 -10 11 -10 5 0 7 5 4 10 -3 6 -8 10 -11 10 -2 0 -4 -4 -4 -10z" style="paint-order: stroke; fill: rgb(255, 255, 255);" class="svg-elem-150"></path>
    <path d="M1455 850 c-16 -7 -17 -9 -3 -9 9 -1 20 4 23 9 7 11 7 11 -20 0z" style="paint-order: stroke; fill: rgb(255, 255, 255);" class="svg-elem-151"></path>
    <path d="M1586 844 c-5 -14 -4 -15 9 -4 17 14 19 20 6 20 -5 0 -12 -7 -15 -16z" style="paint-order: stroke; fill: rgb(255, 255, 255);" class="svg-elem-152"></path>
    <path d="M1883 843 c-3 -10 -8 -22 -11 -27 -3 -5 0 -6 5 -3 11 7 25 47 17 47 -3 0 -7 -8 -11 -17z" style="paint-order: stroke; fill: rgb(255, 255, 255);" class="svg-elem-153"></path>
    <path d="M1408 833 c6 -2 12 -8 12 -13 0 -5 16 -7 36 -5 40 4 60 16 23 14 -13 -1 -37 1 -54 4 -16 2 -24 2 -17 0z" style="paint-order: stroke; fill: rgb(255, 255, 255);" class="svg-elem-154"></path>
    <path d="M800 819 c0 -11 27 -12 34 -1 2 4 -4 9 -15 9 -10 1 -19 -2 -19 -8z" style="paint-order: stroke; fill: rgb(255, 255, 255);" class="svg-elem-155"></path>
    <path d="M1641 814 c0 -11 3 -14 6 -6 3 7 2 16 -1 19 -3 4 -6 -2 -5 -13z" style="paint-order: stroke; fill: rgb(255, 255, 255);" class="svg-elem-156"></path>
    <path d="M1335 810 c-4 -6 5 -10 19 -10 14 0 26 5 26 10 0 6 -9 10 -19 10 -11 0 -23 -4 -26 -10z" style="paint-order: stroke; fill: rgb(255, 255, 255);" class="svg-elem-157"></path>
    <path d="M825 800 c-3 -5 1 -10 9 -10 9 0 16 5 16 10 0 6 -4 10 -9 10 -6 0 -13 -4 -16 -10z" style="paint-order: stroke; fill: rgb(255, 255, 255);" class="svg-elem-158"></path>
    <path d="M918 773 c7 -3 16 -2 19 1 4 3 -2 6 -13 5 -11 0 -14 -3 -6 -6z" style="paint-order: stroke; fill: rgb(255, 255, 255);" class="svg-elem-159"></path>
    <path d="M2115 770 c-3 -5 -1 -10 4 -10 6 0 11 5 11 10 0 6 -2 10 -4 10 -3 0 -8 -4 -11 -10z" style="paint-order: stroke; fill: rgb(255, 255, 255);" class="svg-elem-160"></path>
    <path d="M803 748 c-2 -15 1 -18 6 -10 6 10 13 11 33 1 20 -8 30 -8 44 1 18 11 18 11 -2 7 -12 -2 -32 2 -45 9 -32 18 -34 17 -36 -8z" style="paint-order: stroke; fill: rgb(255, 255, 255);" class="svg-elem-161"></path>
    <path d="M2136 745 c-3 -8 -1 -15 3 -15 5 0 11 7 15 15 3 8 1 15 -3 15 -5 0 -11 -7 -15 -15z" style="paint-order: stroke; fill: rgb(255, 255, 255);" class="svg-elem-162"></path>
    <path d="M973 705 c0 -7 8 -10 19 -7 10 2 18 6 18 7 0 1 -8 5 -18 7 -11 3 -19 0 -19 -7z" style="paint-order: stroke; fill: rgb(255, 255, 255);" class="svg-elem-163"></path>
    <path d="M1825 710 c3 -5 8 -10 11 -10 2 0 4 5 4 10 0 6 -5 10 -11 10 -5 0 -7 -4 -4 -10z" style="paint-order: stroke; fill: rgb(255, 255, 255);" class="svg-elem-164"></path>
    <path d="M883 698 c1 -7 -4 -13 -10 -14 -7 -1 -16 -2 -19 -3 -4 0 -2 -7 4 -14 13 -15 -1 -43 -16 -33 -5 3 -12 -5 -14 -19 -4 -20 -2 -23 12 -15 10 5 20 6 24 2 4 -3 4 1 1 10 -3 8 1 23 10 32 9 9 14 20 10 25 -9 16 15 23 32 9 14 -11 16 -11 12 1 -6 18 -50 35 -46 19z" style="paint-order: stroke; fill: rgb(255, 255, 255);" class="svg-elem-165"></path>
    <path d="M1340 696 c0 -17 22 -35 46 -41 11 -2 28 -7 39 -11 19 -7 19 -7 2 13 -12 13 -26 19 -42 15 -15 -2 -25 0 -25 7 0 6 6 11 13 11 8 0 7 4 -3 10 -21 13 -30 12 -30 -4z" style="paint-order: stroke; fill: rgb(255, 255, 255);" class="svg-elem-166"></path>
    <path d="M2072 689 c25 -19 40 -16 32 6 -4 8 -17 14 -30 13 l-25 -2 23 -17z" style="paint-order: stroke; fill: rgb(255, 255, 255);" class="svg-elem-167"></path>
    <path d="M1410 696 c0 -2 7 -7 16 -10 8 -3 12 -2 9 4 -6 10 -25 14 -25 6z" style="paint-order: stroke; fill: rgb(255, 255, 255);" class="svg-elem-168"></path>
    <path d="M1190 684 c0 -18 61 -88 97 -112 18 -12 49 -26 70 -31 21 -5 47 -12 58 -17 16 -6 15 -3 -5 14 l-25 21 23 1 c13 0 21 4 17 9 -3 5 -18 6 -33 2 -35 -9 -64 -3 -55 12 5 9 2 8 -8 0 -12 -10 -20 -9 -40 4 -13 9 -30 25 -37 36 -30 40 -61 71 -62 61z" style="paint-order: stroke; fill: rgb(255, 255, 255);" class="svg-elem-169"></path>
    <path d="M1987 661 c3 -12 9 -21 14 -21 14 0 11 16 -5 29 -12 10 -13 8 -9 -8z" style="paint-order: stroke; fill: rgb(255, 255, 255);" class="svg-elem-170"></path>
    <path d="M980 661 c0 -15 23 -26 28 -13 2 7 9 9 14 6 7 -4 8 -2 4 4 -9 14 -46 16 -46 3z" style="paint-order: stroke; fill: rgb(255, 255, 255);" class="svg-elem-171"></path>
    <path d="M1720 659 c0 -5 5 -7 10 -4 6 3 10 8 10 11 0 2 -4 4 -10 4 -5 0 -10 -5 -10 -11z" style="paint-order: stroke; fill: rgb(255, 255, 255);" class="svg-elem-172"></path>
    <path d="M2030 650 c-7 -4 -10 -15 -7 -24 3 -8 2 -18 -3 -21 -6 -4 -10 -11 -10 -16 0 -6 4 -8 10 -4 5 3 16 -5 25 -19 10 -15 22 -23 31 -19 8 3 21 0 28 -6 12 -10 14 -9 12 6 -2 12 -10 17 -25 15 -14 -2 -21 2 -21 12 0 9 -7 16 -15 16 -8 0 -15 4 -15 9 0 5 7 14 15 21 8 7 15 16 15 20 0 12 -26 19 -40 10z m13 -15 c-3 -9 -8 -14 -10 -11 -3 3 -2 9 2 15 9 16 15 13 8 -4z" style="paint-order: stroke; fill: rgb(255, 255, 255);" class="svg-elem-173"></path>
    <path d="M2142 643 c2 -10 12 -20 23 -23 11 -3 21 -14 23 -24 3 -13 0 -16 -9 -11 -8 5 -10 4 -5 -4 4 -6 12 -9 17 -6 18 12 9 -22 -11 -40 -11 -10 -20 -25 -19 -34 0 -14 1 -14 6 -1 3 8 17 25 30 38 15 13 22 29 19 38 -4 12 0 14 22 11 15 -2 35 -7 45 -12 11 -5 23 -3 30 5 9 10 9 11 0 6 -6 -3 -14 -2 -18 4 -4 6 -10 8 -14 5 -5 -2 -17 3 -27 11 -10 9 -13 12 -5 8 9 -4 12 -3 8 3 -4 6 -16 13 -28 16 -16 4 -19 3 -10 -6 6 -6 11 -15 11 -19 0 -16 -17 -8 -48 22 -37 35 -44 37 -40 13z" style="paint-order: stroke; fill: rgb(255, 255, 255);" class="svg-elem-174"></path>
    <path d="M2109 631 c14 -25 20 -27 17 -4 -2 9 -8 19 -15 21 -10 3 -10 0 -2 -17z" style="paint-order: stroke; fill: rgb(255, 255, 255);" class="svg-elem-175"></path>
    <path d="M1120 630 c0 -5 4 -10 9 -10 6 0 13 5 16 10 3 6 -1 10 -9 10 -9 0 -16 -4 -16 -10z" style="paint-order: stroke; fill: rgb(255, 255, 255);" class="svg-elem-176"></path>
    <path d="M1765 630 c-3 -5 1 -10 9 -10 9 0 16 5 16 10 0 6 -4 10 -9 10 -6 0 -13 -4 -16 -10z" style="paint-order: stroke; fill: rgb(255, 255, 255);" class="svg-elem-177"></path>
    <path d="M2086 621 c-3 -5 1 -14 9 -21 12 -10 15 -10 15 3 0 19 -16 31 -24 18z" style="paint-order: stroke; fill: rgb(255, 255, 255);" class="svg-elem-178"></path>
    <path d="M961 606 c-14 -17 -6 -56 11 -56 6 0 6 6 -2 15 -10 12 -10 18 0 30 7 9 11 18 8 20 -3 3 -11 -1 -17 -9z" style="paint-order: stroke; fill: rgb(255, 255, 255);" class="svg-elem-179"></path>
    <path d="M902 599 c-13 -5 -22 -15 -20 -21 5 -15 38 -18 37 -4 0 5 5 12 11 16 19 12 -3 19 -28 9z" style="paint-order: stroke; fill: rgb(255, 255, 255);" class="svg-elem-180"></path>
    <path d="M1049 583 c-5 -28 -3 -33 15 -33 13 0 17 3 10 8 -7 4 -14 18 -16 32 -3 23 -4 22 -9 -7z" style="paint-order: stroke; fill: rgb(255, 255, 255);" class="svg-elem-181"></path>
    <path d="M1680 590 c0 -5 5 -10 11 -10 5 0 7 5 4 10 -3 6 -8 10 -11 10 -2 0 -4 -4 -4 -10z" style="paint-order: stroke; fill: rgb(255, 255, 255);" class="svg-elem-182"></path>
    <path d="M1456 577 c-17 -12 -14 -14 25 -15 30 -1 39 1 29 7 -8 6 -17 8 -21 5 -4 -2 -9 1 -11 6 -2 7 -10 6 -22 -3z" style="paint-order: stroke; fill: rgb(255, 255, 255);" class="svg-elem-183"></path>
    <path d="M1620 571 c0 -5 -15 -8 -34 -7 -19 1 -32 -2 -30 -6 3 -5 -4 -8 -15 -8 -12 0 -21 -4 -21 -9 0 -16 20 -23 34 -12 7 6 25 12 41 13 15 2 30 8 32 15 3 7 10 10 16 6 6 -3 7 -1 3 5 -8 14 -26 16 -26 3z" style="paint-order: stroke; fill: rgb(255, 255, 255);" class="svg-elem-184"></path>
    <path d="M840 523 c0 -9 3 -13 7 -10 3 4 13 1 21 -6 13 -10 15 -9 9 6 -4 10 -7 21 -7 23 0 2 -7 4 -15 4 -8 0 -15 -7 -15 -17z" style="paint-order: stroke; fill: rgb(255, 255, 255);" class="svg-elem-185"></path>
    <path d="M880 530 c0 -5 5 -10 10 -10 6 0 10 5 10 10 0 6 -4 10 -10 10 -5 0 -10 -4 -10 -10z" style="paint-order: stroke; fill: rgb(255, 255, 255);" class="svg-elem-186"></path>
    <path d="M1030 528 c0 -5 4 -8 9 -8 5 0 16 -3 25 -6 10 -4 16 -1 16 7 0 8 -11 14 -25 14 -14 0 -25 -3 -25 -7z" style="paint-order: stroke; fill: rgb(255, 255, 255);" class="svg-elem-187"></path>
    <path d="M949 513 c-12 -16 -12 -17 2 -6 9 7 20 9 24 5 5 -4 5 -1 1 6 -9 16 -11 15 -27 -5z" style="paint-order: stroke; fill: rgb(255, 255, 255);" class="svg-elem-188"></path>
    <path d="M1459 519 c-10 -6 -7 -9 14 -9 29 0 35 5 14 13 -8 3 -20 1 -28 -4z" style="paint-order: stroke; fill: rgb(255, 255, 255);" class="svg-elem-189"></path>
    <path d="M2081 520 c0 -8 15 -41 33 -73 26 -47 42 -63 76 -78 45 -20 60 -15 59 21 0 9 -6 5 -14 -10 -8 -14 -14 -19 -15 -12 0 6 -7 12 -15 12 -8 0 -15 7 -15 15 0 10 -7 15 -17 13 -11 -2 -18 3 -18 12 0 9 11 16 28 18 15 2 27 7 27 11 0 4 -18 6 -41 4 -23 -2 -38 0 -35 5 3 5 -8 24 -24 43 -17 20 -29 28 -29 19z" style="paint-order: stroke; fill: rgb(255, 255, 255);" class="svg-elem-190"></path>
    <path d="M907 503 c-2 -5 -7 -20 -11 -35 -3 -16 -11 -28 -16 -28 -6 0 -10 -5 -10 -10 0 -6 8 -5 20 2 11 7 20 20 20 28 0 9 5 21 11 27 7 7 7 13 1 17 -6 3 -13 3 -15 -1z" style="paint-order: stroke; fill: rgb(255, 255, 255);" class="svg-elem-191"></path>
    <path d="M1022 485 c-1 -18 2 -23 13 -19 18 7 19 18 2 32 -10 8 -13 5 -15 -13z" style="paint-order: stroke; fill: rgb(255, 255, 255);" class="svg-elem-192"></path>
    <path d="M1105 500 c4 -6 11 -8 16 -5 14 9 11 15 -7 15 -8 0 -12 -5 -9 -10z" style="paint-order: stroke; fill: rgb(255, 255, 255);" class="svg-elem-193"></path>
    <path d="M850 470 c-17 -32 -6 -46 13 -17 9 15 13 28 7 32 -5 3 -14 -4 -20 -15z" style="paint-order: stroke; fill: rgb(255, 255, 255);" class="svg-elem-194"></path>
    <path d="M1070 471 c-17 -32 -12 -46 8 -28 19 17 25 47 11 47 -5 0 -13 -9 -19 -19z" style="paint-order: stroke; fill: rgb(255, 255, 255);" class="svg-elem-195"></path>
    <path d="M2336 455 c-19 -15 -19 -15 1 -15 11 0 24 -8 27 -17 6 -15 8 -15 16 -3 27 42 -4 66 -44 35z" style="paint-order: stroke; fill: rgb(255, 255, 255);" class="svg-elem-196"></path>
    <path d="M2240 434 c-6 -14 -14 -22 -20 -19 -5 3 -10 1 -10 -4 0 -16 16 -13 33 4 9 8 17 11 19 6 2 -5 26 -12 53 -15 35 -4 44 -3 30 3 -11 5 -32 10 -47 10 -21 1 -28 6 -28 21 0 28 -19 25 -30 -6z" style="paint-order: stroke; fill: rgb(255, 255, 255);" class="svg-elem-197"></path>
    <path d="M940 440 c0 -5 5 -10 10 -10 6 0 10 5 10 10 0 6 -4 10 -10 10 -5 0 -10 -4 -10 -10z" style="paint-order: stroke; fill: rgb(255, 255, 255);" class="svg-elem-198"></path>
    <path d="M979 448 c-7 -28 -5 -36 7 -31 8 3 14 1 14 -5 0 -13 -25 -33 -33 -25 -4 3 -9 -2 -13 -11 -9 -22 -24 -20 -24 4 0 11 -7 20 -15 20 -9 0 -15 -7 -13 -16 2 -10 -15 -26 -47 -44 -54 -31 -75 -37 -75 -19 0 6 -10 23 -22 37 -19 25 -20 21 -2 -23 3 -8 1 -15 -4 -15 -6 0 -9 -11 -6 -25 3 -19 1 -23 -11 -19 -8 4 -27 -1 -41 -11 -33 -22 -46 -9 -15 16 14 11 18 19 10 19 -8 0 -25 3 -39 5 l-25 6 25 -12 25 -11 -23 -11 c-15 -7 -20 -16 -17 -27 4 -13 -2 -19 -20 -24 -14 -4 -30 -4 -35 -1 -6 4 -10 2 -10 -3 0 -9 -7 -10 -56 -13 -18 -1 -22 -4 -13 -10 10 -6 5 -11 -16 -19 -15 -6 -34 -9 -41 -6 -7 3 -15 -2 -18 -10 -8 -22 -57 -18 -63 6 -3 11 -9 17 -14 14 -15 -9 -10 -19 20 -42 l30 -22 68 31 c132 60 153 69 162 69 5 0 67 24 138 54 70 30 162 68 203 84 41 16 76 35 78 42 3 8 0 10 -7 5 -7 -4 -22 4 -37 20 -13 14 -24 25 -25 23z" style="paint-order: stroke; fill: rgb(255, 255, 255);" class="svg-elem-199"></path>
    <path d="M1035 430 c-3 -5 -1 -10 4 -10 6 0 11 5 11 10 0 6 -2 10 -4 10 -3 0 -8 -4 -11 -10z" style="paint-order: stroke; fill: rgb(255, 255, 255);" class="svg-elem-200"></path>
    <path d="M2400 396 c-6 -8 -18 -12 -26 -9 -8 3 -14 -1 -14 -10 0 -22 17 -30 24 -11 4 9 13 14 21 10 10 -4 15 1 15 14 0 24 -4 25 -20 6z" style="paint-order: stroke; fill: rgb(255, 255, 255);" class="svg-elem-201"></path>
    <path d="M830 396 c0 -9 40 -13 46 -5 3 5 -6 9 -20 9 -14 0 -26 -2 -26 -4z" style="paint-order: stroke; fill: rgb(255, 255, 255);" class="svg-elem-202"></path>
    <path d="M2467 382 c3 -13 -51 -72 -67 -72 -4 0 -17 9 -30 20 -13 11 -28 19 -34 17 -6 -2 -16 3 -23 12 -11 14 -12 14 -13 -2 0 -10 -5 -15 -10 -12 -6 4 -8 16 -4 27 4 14 2 18 -5 14 -6 -4 -11 -13 -11 -21 0 -7 -5 -15 -12 -17 -13 -5 156 -88 178 -88 12 0 12 4 -2 24 -15 24 -14 26 11 48 27 24 56 66 37 54 -6 -3 -12 -3 -15 1 -2 5 -2 2 0 -5z m-116 -69 c13 -17 13 -17 -6 -3 -11 8 -22 16 -24 17 -2 2 0 3 6 3 6 0 17 -8 24 -17z m69 -23 c0 -5 -5 -10 -11 -10 -5 0 -7 5 -4 10 3 6 8 10 11 10 2 0 4 -4 4 -10z" style="paint-order: stroke; fill: rgb(255, 255, 255);" class="svg-elem-203"></path>
    <path d="M1515 360 c-3 -5 -1 -10 4 -10 6 0 11 5 11 10 0 6 -2 10 -4 10 -3 0 -8 -4 -11 -10z" style="paint-order: stroke; fill: rgb(255, 255, 255);" class="svg-elem-204"></path>
    <path d="M2165 273 c0 -54 -4 -132 -9 -173 -10 -86 3 -89 16 -2 17 124 20 236 6 255 -11 15 -13 3 -13 -80z" style="paint-order: stroke; fill: rgb(255, 255, 255);" class="svg-elem-205"></path>
    <path d="M630 352 c0 -12 19 -26 26 -19 2 2 -2 10 -11 17 -9 8 -15 8 -15 2z" style="paint-order: stroke; fill: rgb(255, 255, 255);" class="svg-elem-206"></path>
    <path d="M1000 339 c-7 -12 -18 -18 -26 -15 -8 3 -13 2 -9 -3 3 -5 -1 -12 -7 -14 -7 -3 -3 -6 10 -6 19 -1 22 -5 17 -21 -3 -11 -4 -20 0 -20 6 0 25 44 30 70 1 8 8 14 15 12 6 -1 9 2 5 8 -10 16 -23 12 -35 -11z" style="paint-order: stroke; fill: rgb(255, 255, 255);" class="svg-elem-207"></path>
    <path d="M686 334 c-9 -22 -8 -23 13 -17 27 7 36 33 12 33 -10 0 -22 -7 -25 -16z" style="paint-order: stroke; fill: rgb(255, 255, 255);" class="svg-elem-208"></path>
    <path d="M800 340 c-8 -5 -11 -12 -7 -16 4 -4 13 -2 19 4 15 15 7 24 -12 12z" style="paint-order: stroke; fill: rgb(255, 255, 255);" class="svg-elem-209"></path>
    <path d="M1499 324 c-10 -12 -10 -15 1 -12 8 2 15 -3 16 -9 3 -27 5 -28 15 -10 7 13 6 21 -4 32 -13 13 -17 13 -28 -1z" style="paint-order: stroke; fill: rgb(255, 255, 255);" class="svg-elem-210"></path>
    <path d="M585 320 c-4 -7 -15 -10 -25 -7 -22 6 -16 -18 6 -27 9 -3 12 -1 9 4 -3 6 1 10 9 10 8 0 20 -8 25 -17 16 -27 13 -9 -3 22 -9 17 -16 22 -21 15z" style="paint-order: stroke; fill: rgb(255, 255, 255);" class="svg-elem-211"></path>
    <path d="M2210 325 c0 -3 8 -17 17 -32 12 -17 18 -51 19 -107 4 -120 6 -127 15 -61 9 67 3 127 -17 167 -13 25 -34 46 -34 33z" style="paint-order: stroke; fill: rgb(255, 255, 255);" class="svg-elem-212"></path>
    <path d="M1955 310 c3 -5 11 -10 16 -10 6 0 7 5 4 10 -3 6 -11 10 -16 10 -6 0 -7 -4 -4 -10z" style="paint-order: stroke; fill: rgb(255, 255, 255);" class="svg-elem-213"></path>
    <path d="M885 300 c-3 -5 -4 -14 -1 -18 11 -18 -15 -36 -56 -38 -43 -2 -65 -7 -103 -25 -15 -7 -10 -7 15 -3 19 4 37 10 38 15 2 5 8 6 13 3 6 -3 6 -10 1 -17 -12 -16 -22 -57 -14 -57 4 0 14 15 22 32 11 24 27 36 62 47 26 9 50 20 54 24 5 4 1 5 -8 2 -14 -6 -16 -2 -12 19 5 27 0 34 -11 16z" style="paint-order: stroke; fill: rgb(255, 255, 255);" class="svg-elem-214"></path>
    <path d="M843 270 c-11 -16 -10 -18 2 -14 8 4 15 12 15 20 0 19 -3 18 -17 -6z" style="paint-order: stroke; fill: rgb(255, 255, 255);" class="svg-elem-215"></path>
    <path d="M952 278 c-16 -16 -15 -28 2 -28 7 0 16 9 19 20 6 23 -3 26 -21 8z" style="paint-order: stroke; fill: rgb(255, 255, 255);" class="svg-elem-216"></path>
    <path d="M543 265 c-17 -18 -16 -22 2 -22 8 0 15 9 15 19 0 21 -1 22 -17 3z" style="paint-order: stroke; fill: rgb(255, 255, 255);" class="svg-elem-217"></path>
    <path d="M2474 271 c4 -5 0 -11 -6 -14 -7 -2 -11 -7 -8 -10 3 -3 79 -37 170 -77 103 -45 187 -89 223 -117 60 -45 95 -52 42 -8 -17 14 -41 34 -54 46 -22 19 -65 41 -83 43 -3 1 -18 11 -31 23 -14 12 -28 19 -30 16 -9 -9 -47 8 -47 21 0 18 -47 39 -52 24 -2 -6 -10 -8 -17 -4 -9 6 -9 11 0 22 9 10 9 14 0 14 -6 0 -14 -7 -17 -15 -4 -8 -13 -15 -21 -15 -9 0 -13 6 -9 15 3 9 0 15 -9 15 -8 0 -15 -6 -16 -12 0 -7 -4 -4 -8 7 -6 14 -4 22 8 27 11 5 7 7 -12 7 -16 1 -26 -3 -23 -8z" style="paint-order: stroke; fill: rgb(255, 255, 255);" class="svg-elem-218"></path>
    <path d="M590 260 c0 -6 7 -13 15 -17 24 -9 27 1 5 15 -13 8 -20 8 -20 2z" style="paint-order: stroke; fill: rgb(255, 255, 255);" class="svg-elem-219"></path>
    <path d="M2304 248 c10 -15 22 -25 27 -23 4 3 13 -3 18 -14 14 -25 14 -34 0 -25 -7 4 -10 1 -7 -6 9 -29 27 -21 23 10 -3 22 -1 30 8 27 45 -18 43 -13 -3 9 -30 14 -61 31 -69 37 -9 8 -8 2 3 -15z" style="paint-order: stroke; fill: rgb(255, 255, 255);" class="svg-elem-220"></path>
    <path d="M2116 235 c9 -14 20 -25 25 -25 13 0 11 7 -8 30 -25 28 -37 25 -17 -5z" style="paint-order: stroke; fill: rgb(255, 255, 255);" class="svg-elem-221"></path>
    <path d="M495 239 c-4 -6 -5 -12 -2 -15 2 -3 7 2 10 11 7 17 1 20 -8 4z" style="paint-order: stroke; fill: rgb(255, 255, 255);" class="svg-elem-222"></path>
    <path d="M400 221 c0 -12 6 -21 15 -21 8 0 15 3 15 6 0 3 -7 12 -15 20 -13 14 -15 13 -15 -5z" style="paint-order: stroke; fill: rgb(255, 255, 255);" class="svg-elem-223"></path>
    <path d="M880 218 c-8 -13 -14 -26 -15 -30 0 -3 -3 -10 -7 -14 -5 -4 -8 -14 -8 -23 0 -9 -9 -27 -20 -41 -28 -36 -25 -48 5 -16 13 14 30 44 36 66 7 22 15 40 19 40 4 0 10 9 13 20 7 27 -5 25 -23 -2z" style="paint-order: stroke; fill: rgb(255, 255, 255);" class="svg-elem-224"></path>
    <path d="M338 223 c-19 -5 -25 -33 -8 -33 6 0 10 5 10 11 0 5 5 7 10 4 6 -3 10 1 10 9 0 9 -1 15 -2 15 -2 -1 -11 -3 -20 -6z" style="paint-order: stroke; fill: rgb(255, 255, 255);" class="svg-elem-225"></path>
    <path d="M2735 220 c-3 -5 -1 -10 4 -10 6 0 11 5 11 10 0 6 -2 10 -4 10 -3 0 -8 -4 -11 -10z" style="paint-order: stroke; fill: rgb(255, 255, 255);" class="svg-elem-226"></path>
    <path d="M1936 208 c3 -5 10 -6 15 -3 13 9 11 12 -6 12 -8 0 -12 -4 -9 -9z" style="paint-order: stroke; fill: rgb(255, 255, 255);" class="svg-elem-227"></path>
    <path d="M670 200 c0 -5 4 -10 9 -10 6 0 13 5 16 10 3 6 -1 10 -9 10 -9 0 -16 -4 -16 -10z" style="paint-order: stroke; fill: rgb(255, 255, 255);" class="svg-elem-228"></path>
    <path d="M2700 199 c0 -5 5 -7 10 -4 6 3 10 8 10 11 0 2 -4 4 -10 4 -5 0 -10 -5 -10 -11z" style="paint-order: stroke; fill: rgb(255, 255, 255);" class="svg-elem-229"></path>
    <path d="M450 190 c0 -5 5 -10 10 -10 6 0 10 5 10 10 0 6 -4 10 -10 10 -5 0 -10 -4 -10 -10z" style="paint-order: stroke; fill: rgb(255, 255, 255);" class="svg-elem-230"></path>
    <path d="M555 169 c-68 -30 -95 -51 -95 -73 0 -6 10 1 21 17 11 15 25 27 30 27 6 0 29 9 51 20 23 11 49 20 57 20 9 0 23 5 31 10 34 22 -27 8 -95 -21z" style="paint-order: stroke; fill: rgb(255, 255, 255);" class="svg-elem-231"></path>
    <path d="M2895 190 c3 -5 8 -10 11 -10 2 0 4 5 4 10 0 6 -5 10 -11 10 -5 0 -7 -4 -4 -10z" style="paint-order: stroke; fill: rgb(255, 255, 255);" class="svg-elem-232"></path>
    <path d="M2413 175 c0 -9 4 -14 9 -13 5 2 10 8 10 13 0 5 -5 11 -10 13 -5 1 -9 -4 -9 -13z" style="paint-order: stroke; fill: rgb(255, 255, 255);" class="svg-elem-233"></path>
    <path d="M2835 180 c-3 -5 -2 -10 4 -10 5 0 13 5 16 10 3 6 2 10 -4 10 -5 0 -13 -4 -16 -10z" style="paint-order: stroke; fill: rgb(255, 255, 255);" class="svg-elem-234"></path>
    <path d="M661 168 c0 -9 -4 -25 -7 -35 -5 -14 -4 -15 5 -7 7 7 11 22 8 35 -2 13 -5 16 -6 7z" style="paint-order: stroke; fill: rgb(255, 255, 255);" class="svg-elem-235"></path>
    <path d="M2479 167 c7 -9 17 -14 22 -11 5 3 9 -2 9 -10 0 -8 5 -18 12 -22 8 -5 9 -2 5 10 -6 15 -4 17 10 11 35 -14 85 -26 90 -22 2 3 -9 8 -26 12 -17 4 -44 13 -59 20 -15 7 -38 16 -52 20 -22 7 -23 6 -11 -8z" style="paint-order: stroke; fill: rgb(255, 255, 255);" class="svg-elem-236"></path>
    <path d="M2790 170 c0 -5 5 -10 11 -10 5 0 7 5 4 10 -3 6 -8 10 -11 10 -2 0 -4 -4 -4 -10z" style="paint-order: stroke; fill: rgb(255, 255, 255);" class="svg-elem-237"></path>
    <path d="M2860 160 c0 -5 5 -10 10 -10 6 0 10 5 10 10 0 6 -4 10 -10 10 -5 0 -10 -4 -10 -10z" style="paint-order: stroke; fill: rgb(255, 255, 255);" class="svg-elem-238"></path>
    <path d="M767 143 c-4 -3 -7 -11 -7 -17 0 -6 5 -5 12 2 6 6 9 14 7 17 -3 3 -9 2 -12 -2z" style="paint-order: stroke; fill: rgb(255, 255, 255);" class="svg-elem-239"></path>
    <path d="M281 123 c8 -10 18 -21 23 -24 4 -4 5 -17 1 -29 -6 -18 -9 -20 -16 -9 -7 11 -10 9 -15 -9 -4 -13 -12 -21 -18 -19 -7 3 -12 -3 -12 -13 0 -22 20 -14 51 20 10 11 36 31 57 42 21 12 38 25 38 30 0 11 -18 10 -25 -2 -11 -17 -45 -11 -45 8 0 14 -2 15 -10 2 -8 -12 -10 -12 -16 3 -3 9 -11 17 -16 17 -6 0 -4 -8 3 -17z" style="paint-order: stroke; fill: rgb(255, 255, 255);" class="svg-elem-240"></path>
    <path d="M961 124 c0 -11 3 -14 6 -6 3 7 2 16 -1 19 -3 4 -6 -2 -5 -13z" style="paint-order: stroke; fill: rgb(255, 255, 255);" class="svg-elem-241"></path>
    <path d="M2640 114 c0 -2 19 -13 43 -23 23 -11 72 -33 110 -50 37 -16 67 -28 67 -25 0 3 -42 24 -92 48 -105 48 -128 58 -128 50z" style="paint-order: stroke; fill: rgb(255, 255, 255);" class="svg-elem-242"></path>
    <path d="M1270 63 c14 -47 22 -63 31 -63 12 0 11 5 -5 44 -18 43 -38 57 -26 19z" style="paint-order: stroke; fill: rgb(255, 255, 255);" class="svg-elem-243"></path>
    <path d="M738 73 c7 -3 16 -2 19 1 4 3 -2 6 -13 5 -11 0 -14 -3 -6 -6z" style="paint-order: stroke; fill: rgb(255, 255, 255);" class="svg-elem-244"></path>
    <path d="M946 65 c8 -19 14 -19 14 0 0 8 -4 15 -10 15 -5 0 -7 -7 -4 -15z" style="paint-order: stroke; fill: rgb(255, 255, 255);" class="svg-elem-245"></path>
    <path d="M2045 71 c-3 -5 -1 -12 5 -16 5 -3 10 1 10 9 0 18 -6 21 -15 7z" style="paint-order: stroke; fill: rgb(255, 255, 255);" class="svg-elem-246"></path>
    <path d="M2625 70 c-3 -5 -1 -10 4 -10 6 0 11 5 11 10 0 6 -2 10 -4 10 -3 0 -8 -4 -11 -10z" style="paint-order: stroke; fill: rgb(255, 255, 255);" class="svg-elem-247"></path>
    <path d="M1659 53 c-13 -16 -12 -17 4 -4 16 13 21 21 13 21 -2 0 -10 -8 -17 -17z" style="paint-order: stroke; fill: rgb(255, 255, 255);" class="svg-elem-248"></path>
    <path d="M730 45 c0 -8 2 -15 4 -15 2 0 6 7 10 15 3 8 1 15 -4 15 -6 0 -10 -7 -10 -15z" style="paint-order: stroke; fill: rgb(255, 255, 255);" class="svg-elem-249"></path>
    <path d="M1138 49 c-10 -5 -18 -17 -18 -24 0 -18 12 -19 26 -5 8 8 15 6 24 -5 7 -8 17 -15 23 -15 7 0 7 4 -1 12 -7 7 -12 20 -12 30 0 20 -16 23 -42 7z" style="paint-order: stroke; fill: rgb(255, 255, 255);" class="svg-elem-250"></path>
  </g>
</svg>