<?xml version="1.0" standalone="no"?>
<!DOCTYPE svg PUBLIC "-//W3C//DTD SVG 20010904//EN"
 "http://www.w3.org/TR/2001/REC-SVG-20010904/DTD/svg10.dtd">
<svg version="1.0" xmlns="http://www.w3.org/2000/svg"
 width="128.000000pt" height="128.000000pt" viewBox="0 0 128.000000 128.000000"
 preserveAspectRatio="xMidYMid meet" >

<g transform="translate(0.000000,128.000000) scale(0.100000,-0.100000)"
fill="#000000">
<path d="M0 640 l0 -640 640 0 640 0 0 640 0 640 -640 0 -640 0 0 -640z m807
388 c-2 -7 -39 -65 -81 -128 -78 -116 -161 -272 -154 -290 1 -5 41 14 88 42
106 64 274 138 317 138 124 1 71 -92 -221 -383 -118 -117 -148 -135 -154 -91
-2 15 21 43 84 102 50 48 79 82 70 82 -43 0 -256 -90 -256 -108 0 -10 26 -104
35 -124 6 -15 2 -18 -24 -18 -29 0 -32 3 -48 60 -13 48 -20 59 -32 55 -42 -16
-102 -22 -123 -11 -43 21 -31 132 27 246 l24 47 -33 76 c-19 42 -43 93 -55
113 -23 38 -22 64 2 64 7 0 35 -43 62 -95 28 -52 52 -95 55 -95 3 0 32 40 65
89 54 82 87 112 100 91 3 -4 -11 -32 -31 -62 -20 -29 -54 -83 -75 -119 l-39
-65 37 -105 c20 -57 37 -105 38 -107 1 -1 37 14 80 34 43 20 116 45 162 57 82
20 86 22 145 86 66 72 114 138 106 147 -15 15 -205 -72 -317 -144 -65 -42
-107 -52 -129 -30 -19 19 -15 39 28 127 72 149 202 331 237 331 8 0 13 -6 10
-12z" fill="white"/>
<path d="M352 506 c-26 -89 -29 -136 -7 -136 26 0 85 28 85 41 0 17 -38 141
-48 157 -6 8 -16 -13 -30 -62z" fill="white"/>
</g>
</svg>
